<svg width="56" height="13" viewBox="0 0 56 13" fill="none" xmlns="http://www.w3.org/2000/svg">
<path d="M12.8502 0C17.3932 0.307345 21.4964 0.51059 25.3043 2.0027C26.9372 2.64218 28.5941 2.66201 30.2571 2.07706C37.4874 -0.470932 44.8984 -0.337088 52.3697 1.14015C56.0571 1.86886 56.8585 3.46011 55.1232 6.25596C55.0328 6.40468 54.84 6.52861 54.8159 6.67732C53.9121 12.6805 48.3087 12.4227 43.0968 12.5665C41.2049 12.621 39.307 12.3384 37.403 12.2244C33.7879 12.0162 31.9321 10.1622 30.8054 7.54979C30.3053 6.39972 29.8654 5.02658 27.9976 4.97205C25.943 4.91257 25.4128 6.36502 24.9308 7.60432C23.5932 11.0297 20.6408 12.2244 16.4714 12.3781C13.3563 12.4921 10.2774 12.4376 7.18648 12.2492C4.31847 12.0757 2.16746 11.1338 1.69147 8.52635C1.61917 8.12482 1.43238 7.72825 1.25765 7.34159C-1.03796 2.36458 -0.561968 1.621 5.81875 0.70392C8.28307 0.35196 10.7835 0.198287 12.8502 0ZM43.8621 11.3123C44.8502 11.228 46.3384 11.0793 47.8267 10.9752C51.6286 10.7075 54.352 6.48399 52.5504 3.64849C52.207 3.11311 51.731 2.68183 51.0321 2.52816C45.2238 1.25912 39.4034 1.22442 33.6131 2.60252C32.3298 2.90987 31.7393 3.70797 31.8598 4.88282C32.2635 8.8337 34.6374 10.762 39.4817 11.0149C40.7771 11.0793 42.0726 11.1884 43.8621 11.3123ZM11.9946 11.3172C13.4648 11.2131 14.8626 11.0892 16.2605 11.0149C21.165 10.7521 22.3399 9.84992 23.6595 5.84452C24.3584 3.72284 23.4425 2.76611 21.0084 2.31005C16.0375 1.3781 11.0908 1.46237 6.10796 2.2109C3.83645 2.55295 2.85434 3.6237 2.86036 5.47273C2.87844 8.7296 3.93888 10.4894 6.38512 10.8463C8.25897 11.114 10.175 11.1735 11.9946 11.3172Z" fill="white"/>
</svg>
