<svg width="28" height="29" viewBox="0 0 28 29" fill="none" xmlns="http://www.w3.org/2000/svg">
<path d="M21.5 6C23.1569 6 24.5 4.65685 24.5 3C24.5 1.34315 23.1569 0 21.5 0C19.8431 0 18.5 1.34315 18.5 3C18.5 4.65685 19.8431 6 21.5 6Z" fill="white"/>
<path d="M19.6655 13.4535C20.0099 13.9666 20.5038 14.3613 21.0802 14.584C21.6566 14.8067 22.2876 14.8467 22.8875 14.6985L27.8615 13.455L27.137 10.545L22.163 11.7885L20.0945 8.68795C19.6526 8.0258 18.9667 7.56531 18.1865 7.40695L12.4175 6.25195C11.7721 6.12243 11.102 6.20899 10.5107 6.49826C9.91946 6.78753 9.43986 7.26343 9.146 7.85245L6.659 12.8265L9.3425 14.169L11.8295 9.19345L14.78 9.78445L7.151 22.5H0.5V25.5H7.151C8.198 25.5 9.1835 24.942 9.7235 24.0435L12.6005 19.2495L20.354 20.8005L23.078 28.974L25.922 28.0245L23.1995 19.8525C23.0315 19.3507 22.7342 18.9022 22.3376 18.5519C21.941 18.2017 21.4591 17.9621 20.9405 17.8575L16.382 16.947L19.04 12.516L19.6655 13.4535Z" fill="white"/>
</svg>
