<svg width="38" height="37" viewBox="0 0 38 37" fill="none" xmlns="http://www.w3.org/2000/svg">
<path d="M19.0001 23.8752C20.4588 23.8752 21.8577 23.3089 22.8892 22.3009C23.9206 21.2929 24.5001 19.9257 24.5001 18.5002C24.5001 17.0746 23.9206 15.7075 22.8892 14.6995C21.8577 13.6915 20.4588 13.1252 19.0001 13.1252C17.5414 13.1252 16.1424 13.6915 15.111 14.6995C14.0795 15.7075 13.5001 17.0746 13.5001 18.5002C13.5001 19.9257 14.0795 21.2929 15.111 22.3009C16.1424 23.3089 17.5414 23.8752 19.0001 23.8752ZM19.0001 27.4585C16.5689 27.4585 14.2374 26.5147 12.5183 24.8347C10.7992 23.1546 9.83342 20.8761 9.83342 18.5002C9.83342 16.1243 10.7992 13.8457 12.5183 12.1657C14.2374 10.4857 16.5689 9.54183 19.0001 9.54183C21.4312 9.54183 23.7628 10.4857 25.4819 12.1657C27.201 13.8457 28.1667 16.1243 28.1667 18.5002C28.1667 20.8761 27.201 23.1546 25.4819 24.8347C23.7628 26.5147 21.4312 27.4585 19.0001 27.4585ZM19.0001 0.583496C19.4863 0.583496 19.9526 0.77226 20.2964 1.10826C20.6403 1.44427 20.8334 1.89998 20.8334 2.37516V5.9585C20.8334 6.43368 20.6403 6.88939 20.2964 7.2254C19.9526 7.5614 19.4863 7.75016 19.0001 7.75016C18.5139 7.75016 18.0475 7.5614 17.7037 7.2254C17.3599 6.88939 17.1667 6.43368 17.1667 5.9585V2.37516C17.1667 1.89998 17.3599 1.44427 17.7037 1.10826C18.0475 0.77226 18.5139 0.583496 19.0001 0.583496ZM19.0001 29.2502C19.4863 29.2502 19.9526 29.4389 20.2964 29.7749C20.6403 30.1109 20.8334 30.5667 20.8334 31.0418V34.6252C20.8334 35.1003 20.6403 35.5561 20.2964 35.8921C19.9526 36.2281 19.4863 36.4168 19.0001 36.4168C18.5139 36.4168 18.0475 36.2281 17.7037 35.8921C17.3599 35.5561 17.1667 35.1003 17.1667 34.6252V31.0418C17.1667 30.5667 17.3599 30.1109 17.7037 29.7749C18.0475 29.4389 18.5139 29.2502 19.0001 29.2502ZM2.50008 16.7085H6.16675C6.65298 16.7085 7.11929 16.8973 7.46311 17.2333C7.80693 17.5693 8.00008 18.025 8.00008 18.5002C8.00008 18.9753 7.80693 19.4311 7.46311 19.7671C7.11929 20.1031 6.65298 20.2918 6.16675 20.2918H2.50008C2.01385 20.2918 1.54754 20.1031 1.20372 19.7671C0.859902 19.4311 0.666748 18.9753 0.666748 18.5002C0.666748 18.025 0.859902 17.5693 1.20372 17.2333C1.54754 16.8973 2.01385 16.7085 2.50008 16.7085ZM31.8334 16.7085H35.5001C35.9863 16.7085 36.4526 16.8973 36.7964 17.2333C37.1403 17.5693 37.3334 18.025 37.3334 18.5002C37.3334 18.9753 37.1403 19.4311 36.7964 19.7671C36.4526 20.1031 35.9863 20.2918 35.5001 20.2918H31.8334C31.3472 20.2918 30.8809 20.1031 30.5371 19.7671C30.1932 19.4311 30.0001 18.9753 30.0001 18.5002C30.0001 18.025 30.1932 17.5693 30.5371 17.2333C30.8809 16.8973 31.3472 16.7085 31.8334 16.7085ZM31.9636 5.83129C32.3073 6.16727 32.5004 6.62291 32.5004 7.098C32.5004 7.57308 32.3073 8.02872 31.9636 8.3647L29.3712 10.8981C29.2021 11.0692 28.9998 11.2057 28.7762 11.2996C28.5525 11.3935 28.3119 11.443 28.0685 11.445C27.8251 11.4471 27.5836 11.4018 27.3583 11.3117C27.133 11.2216 26.9283 11.0886 26.7562 10.9203C26.5841 10.7521 26.4479 10.5521 26.3557 10.3319C26.2636 10.1117 26.2172 9.87576 26.2193 9.63786C26.2214 9.39997 26.272 9.16486 26.3681 8.94627C26.4641 8.72768 26.6038 8.52998 26.7789 8.3647L29.3712 5.83129C29.715 5.4954 30.1813 5.30671 30.6674 5.30671C31.1536 5.30671 31.6198 5.4954 31.9636 5.83129ZM11.2212 26.1022C11.5649 26.4382 11.758 26.8938 11.758 27.3689C11.758 27.844 11.5649 28.2996 11.2212 28.6356L8.62891 31.1672C8.4598 31.3384 8.2575 31.4749 8.03382 31.5688C7.81015 31.6627 7.56958 31.7121 7.32615 31.7142C7.08272 31.7162 6.84131 31.6709 6.616 31.5808C6.39069 31.4907 6.18599 31.3577 6.01386 31.1895C5.84172 31.0212 5.70559 30.8212 5.61341 30.601C5.52123 30.3808 5.47484 30.1449 5.47696 29.907C5.47907 29.6691 5.52965 29.434 5.62573 29.2154C5.72181 28.9968 5.86148 28.7991 6.03658 28.6338L8.62891 26.1004C8.97272 25.7645 9.43895 25.5758 9.92508 25.5758C10.4112 25.5758 10.8774 25.7645 11.2212 26.1004V26.1022ZM8.62891 5.83129L11.2212 8.3647C11.5552 8.70262 11.74 9.1552 11.7358 9.62496C11.7316 10.0947 11.5388 10.5441 11.1989 10.8763C10.859 11.2085 10.3992 11.3969 9.91848 11.401C9.43779 11.4051 8.97469 11.2245 8.62891 10.8981L6.03841 8.3647C5.71804 8.02453 5.54462 7.57649 5.55442 7.11425C5.56422 6.65202 5.75648 6.21138 6.091 5.88447C6.42552 5.55755 6.8764 5.36966 7.34938 5.36008C7.82236 5.35051 8.28083 5.51998 8.62891 5.83308V5.83129ZM29.3712 26.1022L31.9636 28.6356C32.2975 28.9735 32.4823 29.4261 32.4781 29.8959C32.474 30.3657 32.2812 30.815 31.9412 31.1472C31.6013 31.4794 31.1415 31.6678 30.6608 31.6719C30.1801 31.676 29.717 31.4954 29.3712 31.169L26.7789 28.6356C26.6038 28.4703 26.4641 28.2726 26.3681 28.0541C26.272 27.8355 26.2214 27.6004 26.2193 27.3625C26.2172 27.1246 26.2636 26.8886 26.3557 26.6685C26.4479 26.4483 26.5841 26.2482 26.7562 26.08C26.9283 25.9118 27.133 25.7787 27.3583 25.6887C27.5836 25.5986 27.8251 25.5532 28.0685 25.5553C28.3119 25.5574 28.5525 25.6068 28.7762 25.7007C28.9998 25.7946 29.2021 25.9311 29.3712 26.1022Z" fill="white"/>
</svg>
